<mxfile host="app.diagrams.net" modified="2022-09-27T08:48:10.222Z" agent="5.0 (Windows NT 10.0; Win64; x64) AppleWebKit/537.36 (KHTML, like Gecko) Chrome/105.0.0.0 Safari/537.36 Edg/105.0.1343.50" etag="h7k-1wLSYdyW-bu4rxWQ" version="20.3.5" type="github">
  <diagram id="-vz4P1ZITSGPAcEF1N8J" name="Page-1">
    <mxGraphModel dx="1421" dy="1963" grid="1" gridSize="10" guides="1" tooltips="1" connect="1" arrows="1" fold="1" page="1" pageScale="1" pageWidth="827" pageHeight="1169" math="0" shadow="0">
      <root>
        <mxCell id="0" />
        <mxCell id="1" parent="0" />
        <mxCell id="q0Rex6J8z_JQCzWFVHfo-3" value="" style="edgeStyle=orthogonalEdgeStyle;rounded=0;orthogonalLoop=1;jettySize=auto;html=1;" parent="1" source="q0Rex6J8z_JQCzWFVHfo-1" target="q0Rex6J8z_JQCzWFVHfo-2" edge="1">
          <mxGeometry relative="1" as="geometry" />
        </mxCell>
        <mxCell id="q0Rex6J8z_JQCzWFVHfo-5" value="" style="edgeStyle=orthogonalEdgeStyle;rounded=0;orthogonalLoop=1;jettySize=auto;html=1;" parent="1" source="q0Rex6J8z_JQCzWFVHfo-1" target="q0Rex6J8z_JQCzWFVHfo-4" edge="1">
          <mxGeometry relative="1" as="geometry" />
        </mxCell>
        <mxCell id="q0Rex6J8z_JQCzWFVHfo-7" value="" style="edgeStyle=orthogonalEdgeStyle;rounded=0;orthogonalLoop=1;jettySize=auto;html=1;" parent="1" source="q0Rex6J8z_JQCzWFVHfo-1" target="q0Rex6J8z_JQCzWFVHfo-6" edge="1">
          <mxGeometry relative="1" as="geometry" />
        </mxCell>
        <mxCell id="q0Rex6J8z_JQCzWFVHfo-1" value="流程管理器" style="rounded=0;whiteSpace=wrap;html=1;" parent="1" vertex="1">
          <mxGeometry x="235" y="-180" width="120" height="60" as="geometry" />
        </mxCell>
        <mxCell id="q0Rex6J8z_JQCzWFVHfo-2" value="切换流程" style="whiteSpace=wrap;html=1;rounded=0;" parent="1" vertex="1">
          <mxGeometry x="235" y="20" width="120" height="60" as="geometry" />
        </mxCell>
        <mxCell id="q0Rex6J8z_JQCzWFVHfo-4" value="存在流程" style="rounded=0;whiteSpace=wrap;html=1;" parent="1" vertex="1">
          <mxGeometry x="105" y="20" width="120" height="60" as="geometry" />
        </mxCell>
        <mxCell id="q0Rex6J8z_JQCzWFVHfo-6" value="获取流程" style="whiteSpace=wrap;html=1;rounded=0;" parent="1" vertex="1">
          <mxGeometry x="395" y="20" width="120" height="60" as="geometry" />
        </mxCell>
        <mxCell id="vNqGafequIF6js2vLs9z-3" value="" style="edgeStyle=orthogonalEdgeStyle;rounded=0;orthogonalLoop=1;jettySize=auto;html=1;" parent="1" source="vNqGafequIF6js2vLs9z-1" target="vNqGafequIF6js2vLs9z-2" edge="1">
          <mxGeometry relative="1" as="geometry" />
        </mxCell>
        <mxCell id="vNqGafequIF6js2vLs9z-1" value="socket" style="whiteSpace=wrap;html=1;" parent="1" vertex="1">
          <mxGeometry x="250" y="460" width="120" height="60" as="geometry" />
        </mxCell>
        <mxCell id="vNqGafequIF6js2vLs9z-5" value="" style="edgeStyle=orthogonalEdgeStyle;rounded=0;orthogonalLoop=1;jettySize=auto;html=1;" parent="1" source="vNqGafequIF6js2vLs9z-2" target="vNqGafequIF6js2vLs9z-4" edge="1">
          <mxGeometry relative="1" as="geometry" />
        </mxCell>
        <mxCell id="vNqGafequIF6js2vLs9z-2" value="创建频道&lt;br&gt;" style="whiteSpace=wrap;html=1;" parent="1" vertex="1">
          <mxGeometry x="250" y="600" width="120" height="60" as="geometry" />
        </mxCell>
        <mxCell id="vNqGafequIF6js2vLs9z-7" value="" style="edgeStyle=orthogonalEdgeStyle;rounded=0;orthogonalLoop=1;jettySize=auto;html=1;" parent="1" source="vNqGafequIF6js2vLs9z-4" target="vNqGafequIF6js2vLs9z-6" edge="1">
          <mxGeometry relative="1" as="geometry" />
        </mxCell>
        <mxCell id="vNqGafequIF6js2vLs9z-9" value="" style="edgeStyle=orthogonalEdgeStyle;rounded=0;orthogonalLoop=1;jettySize=auto;html=1;" parent="1" source="vNqGafequIF6js2vLs9z-4" target="vNqGafequIF6js2vLs9z-8" edge="1">
          <mxGeometry relative="1" as="geometry" />
        </mxCell>
        <mxCell id="vNqGafequIF6js2vLs9z-4" value="网络类型" style="whiteSpace=wrap;html=1;" parent="1" vertex="1">
          <mxGeometry x="450" y="600" width="110" height="60" as="geometry" />
        </mxCell>
        <mxCell id="vNqGafequIF6js2vLs9z-44" value="" style="edgeStyle=orthogonalEdgeStyle;rounded=0;orthogonalLoop=1;jettySize=auto;html=1;" parent="1" source="vNqGafequIF6js2vLs9z-6" target="vNqGafequIF6js2vLs9z-43" edge="1">
          <mxGeometry relative="1" as="geometry" />
        </mxCell>
        <mxCell id="vNqGafequIF6js2vLs9z-56" value="" style="edgeStyle=orthogonalEdgeStyle;rounded=0;orthogonalLoop=1;jettySize=auto;html=1;" parent="1" source="vNqGafequIF6js2vLs9z-6" target="vNqGafequIF6js2vLs9z-55" edge="1">
          <mxGeometry relative="1" as="geometry" />
        </mxCell>
        <mxCell id="vNqGafequIF6js2vLs9z-6" value="TCP" style="whiteSpace=wrap;html=1;" parent="1" vertex="1">
          <mxGeometry x="620" y="230" width="110" height="60" as="geometry" />
        </mxCell>
        <mxCell id="vNqGafequIF6js2vLs9z-8" value="TCP 同步" style="whiteSpace=wrap;html=1;" parent="1" vertex="1">
          <mxGeometry x="620" y="960" width="110" height="60" as="geometry" />
        </mxCell>
        <mxCell id="vNqGafequIF6js2vLs9z-42" value="" style="edgeStyle=orthogonalEdgeStyle;rounded=0;orthogonalLoop=1;jettySize=auto;html=1;" parent="1" source="vNqGafequIF6js2vLs9z-34" target="vNqGafequIF6js2vLs9z-41" edge="1">
          <mxGeometry relative="1" as="geometry" />
        </mxCell>
        <mxCell id="vNqGafequIF6js2vLs9z-34" value="helpler初始化" style="whiteSpace=wrap;html=1;" parent="1" vertex="1">
          <mxGeometry x="1190" y="230" width="120" height="60" as="geometry" />
        </mxCell>
        <mxCell id="vNqGafequIF6js2vLs9z-41" value="注册包和包处理函数" style="ellipse;whiteSpace=wrap;html=1;" parent="1" vertex="1">
          <mxGeometry x="1390" y="230" width="120" height="60" as="geometry" />
        </mxCell>
        <mxCell id="vNqGafequIF6js2vLs9z-48" value="" style="edgeStyle=orthogonalEdgeStyle;rounded=0;orthogonalLoop=1;jettySize=auto;html=1;" parent="1" source="vNqGafequIF6js2vLs9z-43" target="vNqGafequIF6js2vLs9z-47" edge="1">
          <mxGeometry relative="1" as="geometry" />
        </mxCell>
        <mxCell id="vNqGafequIF6js2vLs9z-43" value="网络初始化" style="whiteSpace=wrap;html=1;" parent="1" vertex="1">
          <mxGeometry x="780" y="230" width="120" height="60" as="geometry" />
        </mxCell>
        <mxCell id="vNqGafequIF6js2vLs9z-45" value="" style="endArrow=classic;html=1;rounded=0;exitX=1;exitY=0.5;exitDx=0;exitDy=0;entryX=0;entryY=0.5;entryDx=0;entryDy=0;" parent="1" source="vNqGafequIF6js2vLs9z-43" target="vNqGafequIF6js2vLs9z-34" edge="1">
          <mxGeometry width="50" height="50" relative="1" as="geometry">
            <mxPoint x="880" y="350" as="sourcePoint" />
            <mxPoint x="930" y="300" as="targetPoint" />
          </mxGeometry>
        </mxCell>
        <mxCell id="vNqGafequIF6js2vLs9z-50" value="" style="edgeStyle=orthogonalEdgeStyle;rounded=0;orthogonalLoop=1;jettySize=auto;html=1;" parent="1" source="vNqGafequIF6js2vLs9z-47" edge="1">
          <mxGeometry relative="1" as="geometry">
            <mxPoint x="1370" y="360" as="targetPoint" />
          </mxGeometry>
        </mxCell>
        <mxCell id="vNqGafequIF6js2vLs9z-52" value="" style="edgeStyle=orthogonalEdgeStyle;rounded=0;orthogonalLoop=1;jettySize=auto;html=1;" parent="1" source="vNqGafequIF6js2vLs9z-47" target="vNqGafequIF6js2vLs9z-51" edge="1">
          <mxGeometry relative="1" as="geometry" />
        </mxCell>
        <mxCell id="vNqGafequIF6js2vLs9z-47" value="socket初始化" style="whiteSpace=wrap;html=1;" parent="1" vertex="1">
          <mxGeometry x="1110" y="350" width="120" height="60" as="geometry" />
        </mxCell>
        <mxCell id="vNqGafequIF6js2vLs9z-49" value="状态初始化&lt;br&gt;（发送，接收，心跳）" style="whiteSpace=wrap;html=1;" parent="1" vertex="1">
          <mxGeometry x="1370" y="330" width="120" height="60" as="geometry" />
        </mxCell>
        <mxCell id="vNqGafequIF6js2vLs9z-51" value="队列初始化" style="whiteSpace=wrap;html=1;" parent="1" vertex="1">
          <mxGeometry x="1240" y="420" width="120" height="60" as="geometry" />
        </mxCell>
        <mxCell id="vNqGafequIF6js2vLs9z-58" value="" style="edgeStyle=orthogonalEdgeStyle;rounded=0;orthogonalLoop=1;jettySize=auto;html=1;" parent="1" source="vNqGafequIF6js2vLs9z-55" target="vNqGafequIF6js2vLs9z-57" edge="1">
          <mxGeometry relative="1" as="geometry" />
        </mxCell>
        <mxCell id="v6LqayzRAc19wyVtaCcf-6" value="" style="edgeStyle=orthogonalEdgeStyle;rounded=0;orthogonalLoop=1;jettySize=auto;html=1;" parent="1" source="vNqGafequIF6js2vLs9z-55" target="v6LqayzRAc19wyVtaCcf-5" edge="1">
          <mxGeometry relative="1" as="geometry" />
        </mxCell>
        <mxCell id="v6LqayzRAc19wyVtaCcf-9" value="" style="edgeStyle=orthogonalEdgeStyle;rounded=0;orthogonalLoop=1;jettySize=auto;html=1;" parent="1" source="vNqGafequIF6js2vLs9z-55" target="v6LqayzRAc19wyVtaCcf-8" edge="1">
          <mxGeometry relative="1" as="geometry" />
        </mxCell>
        <mxCell id="vNqGafequIF6js2vLs9z-55" value="Connnet连接到网络&lt;br&gt;1.socket连接" style="whiteSpace=wrap;html=1;" parent="1" vertex="1">
          <mxGeometry x="780" y="670" width="120" height="60" as="geometry" />
        </mxCell>
        <mxCell id="vNqGafequIF6js2vLs9z-60" value="" style="edgeStyle=orthogonalEdgeStyle;rounded=0;orthogonalLoop=1;jettySize=auto;html=1;" parent="1" source="vNqGafequIF6js2vLs9z-57" target="vNqGafequIF6js2vLs9z-59" edge="1">
          <mxGeometry relative="1" as="geometry" />
        </mxCell>
        <mxCell id="vNqGafequIF6js2vLs9z-57" value="&lt;br&gt;1.开始接收数据&lt;br&gt;2.处理数据" style="whiteSpace=wrap;html=1;" parent="1" vertex="1">
          <mxGeometry x="980" y="670" width="120" height="60" as="geometry" />
        </mxCell>
        <mxCell id="FiyPIoS7A9dRKcopYW_M-2" value="" style="edgeStyle=orthogonalEdgeStyle;rounded=0;orthogonalLoop=1;jettySize=auto;html=1;" parent="1" source="vNqGafequIF6js2vLs9z-59" target="FiyPIoS7A9dRKcopYW_M-1" edge="1">
          <mxGeometry relative="1" as="geometry" />
        </mxCell>
        <mxCell id="vNqGafequIF6js2vLs9z-59" value="1.protobuf反序列化接收数据&lt;br&gt;2.发送事件&lt;br&gt;3.重置包头" style="whiteSpace=wrap;html=1;" parent="1" vertex="1">
          <mxGeometry x="1180" y="670" width="120" height="60" as="geometry" />
        </mxCell>
        <mxCell id="v6LqayzRAc19wyVtaCcf-2" value="" style="endArrow=classic;html=1;rounded=0;exitX=1;exitY=0.5;exitDx=0;exitDy=0;entryX=0.583;entryY=-0.067;entryDx=0;entryDy=0;entryPerimeter=0;" parent="1" source="vNqGafequIF6js2vLs9z-59" target="vNqGafequIF6js2vLs9z-57" edge="1">
          <mxGeometry width="50" height="50" relative="1" as="geometry">
            <mxPoint x="990" y="710" as="sourcePoint" />
            <mxPoint x="1040" y="660" as="targetPoint" />
            <Array as="points">
              <mxPoint x="1160" y="590" />
            </Array>
          </mxGeometry>
        </mxCell>
        <mxCell id="v6LqayzRAc19wyVtaCcf-5" value="发送数据&lt;br&gt;知道将包中数据发送完毕" style="whiteSpace=wrap;html=1;" parent="1" vertex="1">
          <mxGeometry x="910" y="790" width="120" height="60" as="geometry" />
        </mxCell>
        <mxCell id="v6LqayzRAc19wyVtaCcf-7" value="update轮询" style="text;html=1;align=center;verticalAlign=middle;resizable=0;points=[];autosize=1;strokeColor=none;fillColor=none;" parent="1" vertex="1">
          <mxGeometry x="890" y="655" width="80" height="30" as="geometry" />
        </mxCell>
        <mxCell id="v6LqayzRAc19wyVtaCcf-8" value="心跳" style="whiteSpace=wrap;html=1;" parent="1" vertex="1">
          <mxGeometry x="910" y="560" width="120" height="60" as="geometry" />
        </mxCell>
        <mxCell id="FiyPIoS7A9dRKcopYW_M-1" value="根据事件id ，定位handler" style="whiteSpace=wrap;html=1;" parent="1" vertex="1">
          <mxGeometry x="1380" y="670" width="120" height="60" as="geometry" />
        </mxCell>
        <mxCell id="Gihjp0KqFhUBSaglq0Ix-4" value="" style="edgeStyle=orthogonalEdgeStyle;rounded=0;orthogonalLoop=1;jettySize=auto;html=1;" edge="1" parent="1" source="Gihjp0KqFhUBSaglq0Ix-2" target="Gihjp0KqFhUBSaglq0Ix-3">
          <mxGeometry relative="1" as="geometry" />
        </mxCell>
        <mxCell id="Gihjp0KqFhUBSaglq0Ix-6" value="" style="edgeStyle=orthogonalEdgeStyle;rounded=0;orthogonalLoop=1;jettySize=auto;html=1;" edge="1" parent="1" source="Gihjp0KqFhUBSaglq0Ix-2" target="Gihjp0KqFhUBSaglq0Ix-5">
          <mxGeometry relative="1" as="geometry" />
        </mxCell>
        <mxCell id="Gihjp0KqFhUBSaglq0Ix-2" value="原理&lt;br&gt;" style="whiteSpace=wrap;html=1;" vertex="1" parent="1">
          <mxGeometry x="340" y="1090" width="120" height="60" as="geometry" />
        </mxCell>
        <mxCell id="Gihjp0KqFhUBSaglq0Ix-10" value="" style="edgeStyle=orthogonalEdgeStyle;rounded=0;orthogonalLoop=1;jettySize=auto;html=1;" edge="1" parent="1" source="Gihjp0KqFhUBSaglq0Ix-3" target="Gihjp0KqFhUBSaglq0Ix-9">
          <mxGeometry relative="1" as="geometry" />
        </mxCell>
        <mxCell id="Gihjp0KqFhUBSaglq0Ix-3" value="内存缓冲" style="whiteSpace=wrap;html=1;" vertex="1" parent="1">
          <mxGeometry x="540" y="1090" width="120" height="60" as="geometry" />
        </mxCell>
        <mxCell id="Gihjp0KqFhUBSaglq0Ix-12" value="" style="edgeStyle=orthogonalEdgeStyle;rounded=0;orthogonalLoop=1;jettySize=auto;html=1;" edge="1" parent="1" source="Gihjp0KqFhUBSaglq0Ix-5" target="Gihjp0KqFhUBSaglq0Ix-11">
          <mxGeometry relative="1" as="geometry" />
        </mxCell>
        <mxCell id="Gihjp0KqFhUBSaglq0Ix-5" value="socket 流接收" style="whiteSpace=wrap;html=1;" vertex="1" parent="1">
          <mxGeometry x="470" y="1220" width="120" height="60" as="geometry" />
        </mxCell>
        <mxCell id="Gihjp0KqFhUBSaglq0Ix-9" value="初始化清空" style="whiteSpace=wrap;html=1;" vertex="1" parent="1">
          <mxGeometry x="740" y="1090" width="120" height="60" as="geometry" />
        </mxCell>
        <mxCell id="Gihjp0KqFhUBSaglq0Ix-14" value="" style="edgeStyle=orthogonalEdgeStyle;rounded=0;orthogonalLoop=1;jettySize=auto;html=1;" edge="1" parent="1" source="Gihjp0KqFhUBSaglq0Ix-11" target="Gihjp0KqFhUBSaglq0Ix-13">
          <mxGeometry relative="1" as="geometry" />
        </mxCell>
        <mxCell id="Gihjp0KqFhUBSaglq0Ix-11" value="反序列化&lt;br&gt;" style="whiteSpace=wrap;html=1;" vertex="1" parent="1">
          <mxGeometry x="670" y="1220" width="120" height="60" as="geometry" />
        </mxCell>
        <mxCell id="Gihjp0KqFhUBSaglq0Ix-13" value="发送事件" style="whiteSpace=wrap;html=1;" vertex="1" parent="1">
          <mxGeometry x="870" y="1220" width="120" height="60" as="geometry" />
        </mxCell>
      </root>
    </mxGraphModel>
  </diagram>
</mxfile>
